# xmcd CD database file
#
# Track frame offsets:
#	150
#	12086
#	30964
#	57200
#	74992
#	102243
#	131277
#	158316
#	173831
#	197488
#	212371
#
# Disc length: 2941 seconds
#
# Revision: 0
# Processed by: cddbd v1.5.2PL0 Copyright (c) Steve Scherf et al.
# Submitted via: CDex 1.78
#
DISCID=820b7b0b
DTITLE=LUCIA REY TRIO - REFLEXION
DYEAR=2016
DGENRE=Jazz
TTITLE0=DOMINGO
TTITLE1=DESTINO HABANA
TTITLE2=AL FINAL DEL DIA
TTITLE3=BROOKLYN BLUES
TTITLE4=REFLEXION
TTITLE5=LUCERIAS
TTITLE6=CASI NARANJA
TTITLE7=LUMINOSA
TTITLE8=MAURO
TTITLE9=POP DESTROYED
TTITLE10=INTERLUDIO
EXTD=YEAR: 2016
EXTT0=
EXTT1=
EXTT2=
EXTT3=
EXTT4=
EXTT5=
EXTT6=
EXTT7=
EXTT8=
EXTT9=
EXTT10=
PLAYORDER=
